<svg width="618" height="128" viewBox="0 0 618 128" fill="none" xmlns="http://www.w3.org/2000/svg">
<path fill-rule="evenodd" clip-rule="evenodd" d="M484.224 45.7177C492.738 45.7177 499.961 48.954 506.233 55.4532C512.494 62.0499 515.529 69.6756 515.529 78.629C515.529 87.7494 512.522 95.2536 506.358 101.619C500.251 107.972 492.935 111.063 484.016 111.063C475.146 111.063 467.913 107.996 461.975 101.746C455.925 95.3991 452.978 87.8962 452.978 78.8302C452.978 69.7022 456.045 62.0499 462.29 55.4532C468.479 48.9009 475.674 45.7177 484.224 45.7177M518.721 43.3167C509.33 33.6432 497.694 28.6995 484.224 28.6995C470.699 28.6995 459.056 33.6432 449.63 43.3167C440.23 53.0219 435.479 64.8572 435.479 78.5163C435.479 91.9147 440.21 103.58 449.537 113.253C458.905 122.845 470.594 127.76 484.288 127.76C497.973 127.76 509.621 122.845 518.908 113.253C528.198 103.541 532.934 91.8514 532.934 78.348C532.934 64.7711 528.176 53.0219 518.721 43.3167" fill="#7C7C7C"/>
<path fill-rule="evenodd" clip-rule="evenodd" d="M79.2754 78.4337C79.2754 87.4896 76.3137 94.8786 70.1853 101.174C64.0721 107.472 56.9034 110.554 48.1158 110.554C44.2441 110.554 40.7686 109.925 37.3158 108.673C37.1791 108.664 37.0893 108.643 37.0045 108.577L36.5741 108.411C32.8379 106.962 29.3105 104.529 26.2336 101.307C22.1531 96.9771 19.4711 91.984 18.2194 86.3834C17.6473 83.8584 17.3954 81.3093 17.3954 78.6198C17.3954 69.5613 20.3571 62.0293 26.526 55.4542C32.705 48.9625 39.8105 45.8338 48.2525 45.8338C56.735 45.8338 63.8013 48.9625 69.9967 55.4947C76.2821 62.0508 79.2754 69.5208 79.2754 78.4337M88.0212 0C83.8343 0 80.2449 3.12115 79.6639 7.26622L79.6285 40.6572C72.2737 34.1643 63.7266 30.3356 54.1176 29.2826H53.8569C53.2392 29.1902 52.595 29.1902 52.009 29.1155C51.361 29.0446 50.7243 29.0446 50.113 28.9282C48.7334 28.8966 47.3437 28.8966 45.6857 28.9801L45.2997 29.0446C44.6529 29.0446 43.9732 29.094 43.3252 29.1902C42.5759 29.2294 41.7204 29.3218 40.823 29.4294L40.2889 29.5509C39.694 29.6167 39.1004 29.7015 38.6334 29.8015C37.8284 29.9091 37.0893 30.1483 36.2526 30.2825C28.6852 32.2253 21.7569 35.9907 15.7665 41.7128L15.5273 41.8241C15.0058 42.3988 14.5261 42.8696 13.9199 43.486L13.3592 44.0694C13.0339 44.4656 12.6441 44.8845 12.2935 45.2921C11.2923 46.4046 10.276 47.6488 9.26725 49.0688C8.92172 49.4739 8.63948 49.87 8.36862 50.2991L8.11676 50.6421C2.68196 58.6993 0 68.0603 0 78.2236C0 79.121 0.0101254 79.8829 0.0101254 80.7701C0.135427 82.4282 0.229087 83.8584 0.417672 85.3L0.699917 87.2099C0.815093 87.7832 0.958114 88.3971 1.1467 89.1261L1.44033 90.6436C3.5249 98.7996 7.71301 106.17 13.8781 112.595C16.3626 115.143 19.0534 117.481 21.8809 119.339L23.2504 120.252C23.4478 120.373 23.6453 120.455 23.7908 120.567L23.9807 120.655C25.0957 121.394 26.2336 121.969 27.2778 122.508C28.06 122.823 28.8118 123.232 29.4762 123.492C35.23 125.872 41.5748 127.098 48.336 127.098H48.6056C49.3992 127.098 50.1712 127.098 50.9015 127.039C51.2572 127.039 51.6647 127.022 52.0305 126.965H52.3444L53.4177 126.861C53.6683 126.799 53.9581 126.791 54.1176 126.767C63.8013 125.727 72.3889 121.969 79.6285 115.624V119.483L79.6639 119.922C80.2018 123.668 83.2078 126.613 86.9466 127.09H88.7413H89.135C93.375 126.505 96.4835 122.845 96.4835 118.62V8.48507C96.4835 3.80841 92.7358 0 88.0212 0" fill="#7C7C7C"/>
<path fill-rule="evenodd" clip-rule="evenodd" d="M126.882 69.925C127.726 66.6963 128.988 63.6764 130.805 60.8615L131.054 60.4514C132.211 58.6998 133.541 57.0822 135.029 55.4419C141.219 48.9009 148.388 45.7178 156.905 45.7178C165.449 45.7178 172.661 48.9541 178.92 55.4533C181.822 58.5112 184.076 61.8715 185.685 65.5129C186.29 66.9456 186.778 68.3948 187.177 69.925H126.882ZM205.575 76.3432C205.575 75.1332 205.457 73.8638 205.371 72.588C204.58 65.3458 202.367 58.6377 198.716 52.6764C196.742 49.373 194.356 46.262 191.495 43.3168C184.511 36.1164 176.229 31.4751 166.901 29.6374L166.127 29.545C165.449 29.3754 164.74 29.283 164.1 29.1893C163.082 29.0438 162.047 28.897 161.086 28.8653C160.452 28.8008 159.802 28.754 159.146 28.754C157.646 28.6995 156.048 28.6995 154.387 28.754C145.716 29.1893 137.766 31.6713 130.805 36.2961C129.804 36.9213 128.845 37.6542 127.873 38.3832C126.399 39.5286 125.255 40.5196 124.231 41.4904C123.636 42.046 123.092 42.6396 122.372 43.3168C112.982 53.0232 108.215 64.8573 108.215 78.5164C108.215 84.9245 109.328 91.0288 111.523 96.6497C113.786 102.607 117.418 108.19 122.259 113.163C123.364 114.275 124.513 115.371 125.866 116.585C127.79 118.2 129.739 119.639 131.692 120.873C132.914 121.601 134.124 122.28 135.887 123.166C139.476 124.817 143.263 126.098 147.211 126.874C148.009 127.04 148.826 127.154 149.714 127.278C150.486 127.385 151.362 127.488 152.133 127.559C152.906 127.645 153.677 127.665 154.459 127.698L154.805 127.704C155.525 127.76 156.286 127.76 156.988 127.76H157.256C158.007 127.76 158.76 127.76 159.53 127.704C160.042 127.698 160.585 127.665 161.15 127.645L161.87 127.559C173.484 126.506 183.533 121.667 191.609 113.253C193.477 111.314 195.178 109.299 196.62 107.232C197.183 106.502 197.725 105.711 198.215 104.908L198.446 104.427C198.862 103.373 199.051 102.348 199.051 101.326C199.051 96.5041 195.139 92.678 190.369 92.678C187.549 92.678 184.891 94.0829 183.199 96.475C182.029 98.2887 180.654 100.053 179.098 101.619C172.992 107.972 165.679 111.063 156.756 111.063C147.908 111.063 140.706 107.996 134.665 101.747C133.673 100.699 132.671 99.4721 131.763 98.2799L131.433 97.7382C130.701 96.7041 130.053 95.6181 129.333 94.2297C127.922 91.6009 126.935 88.6696 126.399 85.6295H198.268L198.926 85.5156C202.505 84.7321 205.208 81.7641 205.633 77.9949V77.7646C205.633 77.233 205.633 76.7103 205.575 76.3432V76.3432Z" fill="#7C7C7C"/>
<path fill-rule="evenodd" clip-rule="evenodd" d="M423.783 63.3445V118.596C423.783 123.28 419.963 127.098 415.236 127.098C410.877 127.098 407.168 123.878 406.722 119.454V119.139V66.9453V63.5609C406.722 58.316 404.99 54.0051 401.45 50.2587C398.172 46.9262 394.555 45.1239 390.283 44.8315C389.921 44.7581 389.472 44.7581 389.01 44.7581C384.169 44.7581 380.144 46.587 376.699 50.2587C373.329 53.8254 371.627 57.8261 371.416 62.6256V63.1964V63.3862L371.438 63.9191L371.416 64.0646V118.596C371.416 123.28 367.641 127.098 362.934 127.098C358.499 127.098 354.848 123.878 354.389 119.454L354.377 119.139L354.442 63.5293C354.389 63.1154 354.389 62.8002 354.389 62.518C354.252 59.836 352.009 54.567 352.009 54.567C352.009 54.567 350.254 51.4788 349.078 50.2587C345.572 46.587 341.502 44.7581 336.679 44.7581C331.89 44.7581 327.861 46.587 324.367 50.2587C320.788 54.0051 319.056 58.3868 319.056 63.5293V119.681C318.493 123.945 314.858 127.098 310.544 127.098C305.877 127.098 302.025 123.28 302.025 118.596V36.5135C302.025 31.79 305.877 27.9601 310.544 27.9601C314.044 27.9601 317.155 30.1472 318.481 33.2164C319.056 32.8228 319.707 32.4444 320.377 31.9938C325.263 29.3549 330.753 27.9601 336.701 27.9601C345.415 27.9601 353.003 30.8357 359.337 36.4211C360.077 37.0463 360.732 37.7437 361.35 38.4247C361.926 38.9638 362.433 39.5296 362.934 40.0612C363.363 39.5828 363.905 38.9955 364.468 38.4247C365.115 37.7437 365.801 37.0463 366.485 36.4211C372.85 30.8357 380.403 27.9601 389.031 27.9601C390.079 27.9601 391.006 28.0094 391.956 28.0715C399.406 28.6575 406.093 31.4533 411.698 36.5135C412.346 37.0894 413.001 37.7539 413.702 38.4247C420.4 45.3137 423.783 53.6811 423.783 63.3445Z" fill="#7C7C7C"/>
<path fill-rule="evenodd" clip-rule="evenodd" d="M290.346 98.8735C290.346 114.673 277.57 127.645 261.811 127.886H227.269C222.645 127.886 218.911 124.117 218.911 119.517C218.911 114.902 222.645 111.178 227.269 111.178H261.386C268.064 111.125 273.556 105.637 273.556 98.8735C273.556 92.1123 268.064 86.6117 261.3 86.6117H246.098H244.805C228.812 86.6117 215.757 73.6537 215.757 57.6341C215.757 41.5752 228.812 28.573 244.805 28.573H278.921C283.544 28.573 287.326 32.3409 287.326 37.0036C287.326 41.5752 283.544 45.3647 278.921 45.3647H244.805C238.04 45.3647 232.548 50.8628 232.548 57.6341C232.548 64.313 237.994 69.8124 244.668 69.8947H244.979C245.044 69.8947 245.246 69.8947 245.507 69.8668H261.3C265.362 69.8668 269.348 70.668 273.037 72.3475C283.544 77.0115 290.346 87.4141 290.346 98.8735" fill="#7C7C7C"/>
<path fill-rule="evenodd" clip-rule="evenodd" d="M617.624 98.8735C617.624 114.683 604.812 127.665 589.074 127.926H554.577C549.957 127.926 546.197 124.117 546.197 119.517C546.197 114.902 549.957 111.178 554.577 111.178H588.679C595.359 111.125 600.828 105.637 600.828 98.8735C600.828 92.1123 595.326 86.6117 588.594 86.6117H573.382C572.962 86.6648 572.547 86.6648 572.106 86.6648C556.09 86.6648 543.055 73.6955 543.055 57.6341C543.055 41.5752 556.09 28.573 572.106 28.573H606.168C610.78 28.573 614.578 32.3801 614.578 37.0036C614.578 41.5752 610.78 45.3849 606.168 45.3849H572.106C565.326 45.3849 559.805 50.8628 559.805 57.6341C559.805 64.313 565.261 69.8124 571.94 69.8947H572.264C572.316 69.8947 572.547 69.8947 572.753 69.8668H588.594C592.663 69.8668 596.629 70.668 600.316 72.3475C610.833 77.0115 617.624 87.4141 617.624 98.8735" fill="#7C7C7C"/>
</svg>
